<svg width="1174" height="217" viewBox="0 0 1174 217" fill="none" xmlns="http://www.w3.org/2000/svg">
<g clip-path="url(#clip0_23456_278)">
<path d="M100.874 55.9961C134.8 55.9961 162.062 82.3495 162.062 129.907C162.062 177.464 134.8 203.817 100.874 203.817C83.6078 203.817 69.3709 195.033 59.6777 181.099V199.88H20.6019V16.0117H59.6777V78.7146C69.3709 64.4777 83.6078 55.9961 100.874 55.9961ZM90.5748 171.406C114.202 171.406 124.804 152.625 124.804 129.907C124.804 106.885 114.202 88.4078 90.5748 88.4078C66.9476 88.4078 55.4369 106.885 55.4369 129.907C55.4369 152.625 66.9476 171.406 90.5748 171.406ZM239.776 55.9961C273.702 55.9961 310.96 75.6854 310.96 129.907C310.96 183.825 273.702 203.817 239.776 203.817C205.85 203.817 168.591 183.825 168.591 129.907C168.591 75.6854 205.85 55.9961 239.776 55.9961ZM239.776 171.406C263.706 171.406 274.005 152.625 274.005 129.907C274.005 106.885 263.706 88.4078 239.776 88.4078C215.846 88.4078 205.244 106.885 205.244 129.907C205.244 152.625 215.846 171.406 239.776 171.406ZM383.652 55.9961C416.973 55.9961 449.081 64.4777 449.081 111.429V199.88H410.006V181.099C405.765 189.581 391.528 203.817 365.477 203.817C338.215 203.817 317.617 190.489 317.617 163.227C317.617 133.845 329.128 107.794 410.006 114.761V111.429C410.006 97.7981 407.279 85.9845 383.652 85.9845C364.872 85.9845 359.419 93.5573 357.905 102.342H323.07C326.402 68.1126 350.332 55.9961 383.652 55.9961ZM410.006 141.72C373.353 139.6 355.481 141.417 355.481 161.107C355.481 171.103 362.751 177.464 376.079 177.464C391.528 177.464 403.644 168.983 410.006 158.078V141.72Z" fill="black"/>
<path d="M699.728 55.9961C733.654 55.9961 770.913 75.6854 770.913 129.907C770.913 183.825 733.654 203.817 699.728 203.817C665.802 203.817 628.544 183.825 628.544 129.907C628.544 75.6854 665.802 55.9961 699.728 55.9961ZM699.728 171.406C723.658 171.406 733.957 152.625 733.957 129.907C733.957 106.885 723.658 88.4078 699.728 88.4078C675.798 88.4078 665.196 106.885 665.196 129.907C665.196 152.625 675.798 171.406 699.728 171.406ZM833.305 89.6194V145.052C833.305 164.136 841.484 168.074 867.232 164.136V199.88C859.053 201.394 852.995 202 843.907 202C801.197 202 794.23 180.19 794.23 145.052V89.6194H773.026V59.934H794.23V23.2816H833.305V59.934H867.232V89.6194H833.305ZM945.414 171.406C964.497 171.406 975.099 159.289 978.128 142.629H1013.87C1007.81 186.249 976.008 203.817 945.414 203.817C911.488 203.817 873.927 183.825 873.927 129.907C873.927 75.6854 911.488 55.9961 945.414 55.9961C976.008 55.9961 1007.81 73.5651 1013.87 117.184H978.128C975.099 100.524 964.497 88.4078 945.414 88.4078C921.484 88.4078 910.882 106.885 910.882 129.907C910.882 152.625 921.484 171.406 945.414 171.406ZM1106.93 55.9961C1136.62 55.9961 1155.09 75.6854 1155.09 107.188V199.88H1116.02V117.79C1116.02 102.342 1108.14 90.5282 1090.88 90.5282C1073.31 90.5282 1064.22 102.342 1064.22 117.79V199.88H1025.45V16.0117H1064.22V79.9262C1069.07 71.7476 1083 55.9961 1106.93 55.9961Z" fill="black"/>
<path d="M542.871 55.2197C556.179 55.2197 568.411 58.5471 579.566 65.2012C590.917 71.6595 599.822 80.5641 606.28 91.915C612.934 103.07 616.262 115.302 616.262 128.61V202H542.793V179.516H518.029V202H493.265V179.516H468.5V154.752H493.265V129.987H468.5V55.2197H542.871ZM493.265 154.752V179.516H518.029V154.752H493.265Z" fill="black"/>
</g>
<defs>
<clipPath id="clip0_23456_278">
<rect width="1174" height="217" fill="white"/>
</clipPath>
</defs>
</svg>
